HIERARCHY
ROOT RootJoint
{
    OFFSET   0.000000   0.000000   0.000000
    CHANNELS 6 Xposition Yposition Zposition Xrotation Yrotation Zrotation
    JOINT pelvis_lowerback
    {
        OFFSET   0.000000   0.093605   0.000000
        CHANNELS 3 Xrotation Yrotation Zrotation
        JOINT lowerback_torso
        {
            OFFSET   0.000000   0.100000   0.000000
            CHANNELS 3 Xrotation Yrotation Zrotation
            JOINT torso_head
            {
                OFFSET   0.000000   0.282350   0.000000
                CHANNELS 3 Xrotation Yrotation Zrotation
                End Site
                {
                    OFFSET   0.000000   0.192650   0.000000
                }
            }
            JOINT rTorso_Clavicle
            {
                OFFSET  -0.001000   0.157500   0.000000
                CHANNELS 3 Xrotation Yrotation Zrotation
                JOINT rShoulder
                {
                    OFFSET  -0.117647   0.000000   0.000000
                    CHANNELS 3 Xrotation Yrotation Zrotation
                    JOINT rElbow
                    {
                        OFFSET  -0.245000   0.000000   0.000000
                        CHANNELS 3 Xrotation Yrotation Zrotation
                        JOINT rWrist
                        {
                            OFFSET  -0.240000   0.000000   0.000000
                            CHANNELS 3 Xrotation Yrotation Zrotation
                            End Site
                            {
                                OFFSET  -0.116353  -0.002500   0.000000
                            }
                        }
                    }
                }
            }
            JOINT lTorso_Clavicle
            {
                OFFSET   0.001000   0.157500   0.000000
                CHANNELS 3 Xrotation Yrotation Zrotation
                JOINT lShoulder
                {
                    OFFSET   0.117647   0.000000   0.000000
                    CHANNELS 3 Xrotation Yrotation Zrotation
                    JOINT lElbow
                    {
                        OFFSET   0.245000   0.000000   0.000000
                        CHANNELS 3 Xrotation Yrotation Zrotation
                        JOINT lWrist
                        {
                            OFFSET   0.240000   0.000000   0.000000
                            CHANNELS 3 Xrotation Yrotation Zrotation
                            End Site
                            {
                                OFFSET   0.116353  -0.002500   0.000000
                            }
                        }
                    }
                }
            }
        }
    }
    JOINT rHip
    {
        OFFSET  -0.100000  -0.051395   0.000000
        CHANNELS 3 Xrotation Yrotation Zrotation
        JOINT rKnee
        {
            OFFSET   0.000000  -0.410000   0.000000
            CHANNELS 3 Xrotation Yrotation Zrotation
            JOINT rAnkle
            {
                OFFSET   0.000000  -0.390000   0.000000
                CHANNELS 3 Xrotation Yrotation Zrotation
                JOINT rToeJoint
                {
                    OFFSET   0.000000  -0.050000   0.130000
                    CHANNELS 3 Xrotation Yrotation Zrotation
                    End Site
                    {
                        OFFSET  -0.010000   0.002000   0.060000
                    }
                }
            }
        }
    }
    JOINT lHip
    {
        OFFSET   0.100000  -0.051395   0.000000
        CHANNELS 3 Xrotation Yrotation Zrotation
        JOINT lKnee
        {
            OFFSET   0.000000  -0.410000   0.000000
            CHANNELS 3 Xrotation Yrotation Zrotation
            JOINT lAnkle
            {
                OFFSET   0.000000  -0.390000   0.000000
                CHANNELS 3 Xrotation Yrotation Zrotation
                JOINT lToeJoint
                {
                    OFFSET   0.000000  -0.050000   0.130000
                    CHANNELS 3 Xrotation Yrotation Zrotation
                    End Site
                    {
                        OFFSET   0.010000   0.002000   0.060000
                    }
                }
            }
        }
    }
}
MOTION
Frames: 17
Frame Time:   0.008333
 -2.373397   0.918246   4.027854   2.520633 -11.216431   0.256042   6.146962   0.675300  -0.195856   5.913190  -1.720628  -0.504570  -1.498266  -3.280985  -1.133077   4.469128   8.166149   0.014194  17.146314  20.302256  48.587165  -0.000070  25.887204   0.005567   6.635131   3.419831   2.859234   4.543862  -6.462516  -2.154059  16.487044 -14.108937 -46.559178   0.000006 -19.130953  -0.000456   5.688764  -2.825435   1.300191  -1.258332  -1.067836  -4.259339   3.803870  -0.000005  -0.000068  -4.763381  -3.810736   1.371666  -0.104727   0.000037  -0.000000   2.560581  -1.372994   5.041231  -0.001238  -0.000001  -0.000002  -5.193812   4.923978   3.193248   0.323909   0.000150   0.000000
 -2.373088   0.918313   4.027303   2.477946 -10.946811   0.283221   6.286232   0.690317  -0.272298   5.963689  -1.708092  -0.527619  -1.496994  -3.324088  -1.131274   4.442806   8.611898   0.113258  16.798078  20.585977  48.687781  -0.000445  25.445725   0.007224   6.569021   3.357116   2.983143   4.514484  -6.834530  -2.156025  16.339894 -14.441628 -46.699601  -0.000536 -18.954548  -0.000821   5.565914  -2.733980   1.181213  -1.246965  -1.184643  -4.306365   3.872270   0.000005   0.000035  -4.805345  -3.961419   1.302784  -0.087837   0.000040  -0.000000   2.512443  -1.527467   5.011703  -0.000990  -0.000000  -0.000002  -5.095842   4.744089   3.152920   0.307465   0.000116   0.000008
 -2.372759   0.918377   4.026717   2.432869 -10.696627   0.309580   6.427127   0.701018  -0.338939   6.013082  -1.698575  -0.548215  -1.493420  -3.364355  -1.129684   4.388425   9.076463   0.233262  16.439993  20.879580  48.791352  -0.000735  25.039153   0.008242   6.511079   3.266446   3.134749   4.460848  -7.230515  -2.188690  16.172298 -14.785782 -46.848530  -0.000903 -18.799444  -0.001082   5.456480  -2.641581   1.004474  -1.242860  -1.292394  -4.354143   3.948655   0.000015   0.000120  -4.845778  -4.101024   1.238312  -0.071586   0.000042  -0.000000   2.467724  -1.676534   4.981481  -0.000792  -0.000000  -0.000001  -4.999042   4.572112   3.113415   0.288168   0.000087   0.000017
 -2.372427   0.918434   4.026142   2.391716 -10.465190   0.333231   6.560638   0.708946  -0.396185   6.053264  -1.691158  -0.565490  -1.488551  -3.402038  -1.127412   4.318595   9.533449   0.365685  16.083617  21.170866  48.899010  -0.000937  24.668594   0.008689   6.454587   3.214066   3.283623   4.392031  -7.624963  -2.242809  15.994136 -15.126872 -47.000471  -0.001118 -18.664691  -0.001223   5.353626  -2.597261   0.816426  -1.243172  -1.391685  -4.398750   4.021171   0.000022   0.000176  -4.881663  -4.230315   1.178291  -0.056155   0.000042  -0.000000   2.423348  -1.816524   4.953492  -0.000634  -0.000000  -0.000001  -4.909626   4.410965   3.075823   0.272039   0.000065   0.000023
 -2.372102   0.918465   4.025616   2.350613 -10.244437   0.359099   6.684732   0.711776  -0.449923   6.085482  -1.687803  -0.580890  -1.483342  -3.437372  -1.124709   4.242296   9.972726   0.504240  15.736845  21.453440  49.009975  -0.001065  24.329123   0.008730   6.398667   3.198802   3.428050   4.315291  -8.008796  -2.308186  15.813111 -15.457891 -47.151055  -0.001220 -18.546023  -0.001273   5.256058  -2.594296   0.628661  -1.249230  -1.482020  -4.445122   4.099811   0.000029   0.000227  -4.866933  -4.348268   1.112475  -0.338941  -0.000149  -0.000019   2.384644  -1.948508   4.921691  -0.000507  -0.000000  -0.000000  -4.832868   4.259255   3.038804   0.265058   0.000050   0.000022
 -2.371787   0.918509   4.025128   2.315212 -10.044475   0.376829   6.796977   0.714539  -0.492443   6.109499  -1.684958  -0.591967  -1.479198  -3.470227  -1.121757   4.163051  10.391730   0.645613  15.403220  21.724136  49.120799  -0.001141  24.016297   0.008493   6.343743   3.208127   3.566049   4.235216  -8.377155  -2.382475  15.633699 -15.775228 -47.298906  -0.001250 -18.439932  -0.001268   5.162847  -2.618641   0.446254  -1.250107  -1.567905  -4.482844   4.165940   0.000033   0.000245  -4.911248  -4.460753   1.062873  -0.265735  -0.000084  -0.000016   2.346607  -2.069801   4.898511  -0.000406  -0.000000  -0.000000  -4.759451   4.119054   3.005003   0.253332   0.000037   0.000023
 -2.371481   0.918549   4.024680   2.283712  -9.863587   0.393960   6.899019   0.715764  -0.532095   6.127141  -1.683294  -0.600807  -1.475880  -3.500890  -1.118546   4.083999  10.788242   0.785554  15.084771  21.981604  49.231197  -0.001175  23.727537   0.008072   6.289856   3.235688   3.700331   4.155018  -8.727310  -2.458053  15.459377 -16.076488 -47.441354  -0.001228 -18.344154  -0.001228   5.073576  -2.661217   0.269351  -1.250970  -1.645416  -4.519051   4.222933   0.000035   0.000245  -4.948469  -4.562654   1.015422  -0.204899  -0.000039  -0.000013   2.310752  -2.182452   4.875964  -0.000325  -0.000000  -0.000000  -4.691170   3.988592   2.973415   0.239873   0.000026   0.000025
 -2.371140   0.918616   4.024062   2.198987  -9.731934   0.421921   7.039016   0.713355  -0.597389   6.204634  -1.687367  -0.605659  -1.476514  -3.497673  -1.123806   4.041299  11.330582   0.855902  14.731970  22.452904  49.362038  -0.001631  23.328074   0.009234   6.207594   3.142119   3.900220   4.132108  -9.239081  -2.449934  15.328013 -16.666092 -47.642449  -0.001988 -18.057917  -0.002864   4.932594  -2.562889   0.074895  -1.250503  -1.714536  -4.577717   4.345954   0.000045   0.000255  -5.003964  -4.619743   0.961902  -0.151572  -0.000002  -0.000011   2.324597  -2.286948   4.831965  -0.000260  -0.000000  -0.000000  -4.596136   3.870972   2.958805   0.187821   0.000015   0.000058
 -2.370795   0.918682   4.023383   2.115413  -9.623767   0.449331   7.182051   0.703642  -0.658242   6.279771  -1.696063  -0.612336  -1.473782  -3.494196  -1.129275   3.968960  11.885850   0.943402  14.365891  22.923874  49.496477  -0.001896  22.966579   0.009755   6.135001   3.062247   4.133688   4.083219  -9.768462  -2.468297  15.172737 -17.250057 -47.846722  -0.002466 -17.799931  -0.004008   4.807987  -2.455831  -0.178050  -1.260031  -1.771325  -4.635171   4.470394   0.000052   0.000250  -5.050906  -4.664785   0.910985  -0.106516   0.000022  -0.000009   2.337367  -2.386812   4.790134  -0.000208  -0.000000  -0.000000  -4.501206   3.759640   2.945151   0.135798   0.000006   0.000090
 -2.370462   0.918746   4.022698   2.037880  -9.532057   0.475298   7.318998   0.688362  -0.714399   6.344808  -1.709203  -0.619323  -1.469318  -3.491268  -1.134012   3.881592  12.426906   1.044338  14.000433  23.379890  49.633975  -0.002023  22.638647   0.009773   6.063375   3.029400   4.358972   4.016818 -10.289228  -2.507346  15.003122 -17.814881 -48.049288  -0.002708 -17.569376  -0.004689   4.690172  -2.396189  -0.435027  -1.274636  -1.819290  -4.689246   4.586496   0.000055   0.000236  -5.089121  -4.702066   0.863029  -0.068381   0.000036  -0.000007   2.346692  -2.479122   4.751294  -0.000166  -0.000000  -0.000000  -4.409920   3.657229   2.930772   0.086104  -0.000001   0.000114
 -2.370145   0.918803   4.022035   1.965778  -9.454523   0.498853   7.446728   0.668855  -0.766104   6.400216  -1.726159  -0.625943  -1.464619  -3.488700  -1.138091   3.788504  12.944516   1.152732  13.644070  23.815214  49.773014  -0.002057  22.338755   0.009458   5.992304   3.032867   4.573182   3.940728 -10.792132  -2.559276  14.827270 -18.354907 -48.247579  -0.002784 -17.361624  -0.005030   4.577568  -2.379000  -0.684090  -1.291377  -1.859770  -4.738940   4.694310   0.000056   0.000216  -5.121093  -4.732754   0.818072  -0.035987   0.000044  -0.000006   2.354880  -2.564846   4.716507  -0.000133  -0.000000  -0.000000  -4.325408   3.562004   2.917190   0.040858  -0.000005   0.000130
 -2.369848   0.918855   4.021403   1.898058  -9.389628   0.520233   7.564575   0.645835  -0.814207   6.447716  -1.746423  -0.632125  -1.460363  -3.486410  -1.141673   3.695112  13.434542   1.264099  13.301662  24.227093  49.911758  -0.002028  22.062688   0.008934   5.922279   3.059293   4.778560   3.860110 -11.272547  -2.618312  14.650673 -18.867227 -48.439473  -0.002745 -17.172825  -0.005132   4.469528  -2.391538  -0.922741  -1.308613  -1.893652  -4.784721   4.794884   0.000055   0.000193  -5.148643  -4.757576   0.775985  -0.008319   0.000047  -0.000005   2.363494  -2.644437   4.685309  -0.000106  -0.000000  -0.000000  -4.247585   3.473359   2.904314  -0.000867  -0.000008   0.000140
 -2.369570   0.918903   4.020806   1.833963  -9.336110   0.539823   7.672880   0.619853  -0.859284   6.489017  -1.769531  -0.637917  -1.456786  -3.484358  -1.144897   3.604636  13.895250   1.375089  12.975956  24.614375  50.048518  -0.001960  21.807270   0.008292   5.853775   3.098717   4.976827   3.778350 -11.728160  -2.680363  14.476967 -19.350618 -48.623494  -0.002632 -17.000047  -0.005071   4.365680  -2.423264  -1.150407  -1.325544  -1.921625  -4.827173   4.889062   0.000052   0.000169  -5.172829  -4.777129   0.736551   0.015466   0.000048  -0.000004   2.373247  -2.718328   4.657105  -0.000085  -0.000000  -0.000000  -4.175742   3.390781   2.892089  -0.040111  -0.000010   0.000145
 -2.369273   0.918960   4.020091   1.754473  -9.331762   0.553379   7.769447   0.587472  -0.906315   6.579041  -1.793604  -0.640006  -1.458259  -3.457278  -1.154560   3.554498  14.436711   1.359999  12.698493  25.263586  50.198302  -0.001968  21.610283   0.008060   5.769637   2.985807   5.266185   3.755323 -12.301623  -2.650085  14.376697 -20.113750 -48.836676  -0.003133 -16.696138  -0.006996   4.236101  -2.349775  -1.423998  -1.359105  -1.942526  -4.866755   5.012635   0.000050   0.000106  -5.189397  -4.751502   0.693459   0.024501   0.000042  -0.000003   2.398202  -2.753398   4.629632  -0.000068  -0.000000  -0.000000  -4.103159   3.324082   2.884808  -0.078390  -0.000011   0.000147
 -2.368978   0.919015   4.019341   1.678285  -9.354501   0.566182   7.863623   0.548838  -0.953649   6.658810  -1.821637  -0.644251  -1.457126  -3.431752  -1.163049   3.479985  14.980674   1.358288  12.405135  25.897498  50.352684  -0.001874  21.442353   0.007560   5.693231   2.930081   5.592443   3.711698 -12.878683  -2.638089  14.255361 -20.852430 -49.048123  -0.003357 -16.420326  -0.008233   4.123181  -2.273693  -1.748142  -1.399891  -1.957922  -4.902324   5.130089   0.000043   0.000036  -5.198265  -4.723039   0.652704   0.035685   0.000039  -0.000005   2.422559  -2.783564   4.605115  -0.000054  -0.000000  -0.000000  -4.034225   3.263534   2.879414  -0.114376  -0.000010   0.000151
 -2.368693   0.919059   4.018596   1.606918  -9.405712   0.579064   7.950557   0.509561  -1.001526   6.725057  -1.850711  -0.651103  -1.455169  -3.408203  -1.170977   3.393026  15.507677   1.371320  12.108795  26.502768  50.507771  -0.001731  21.294397   0.006923   5.616406   2.924100   5.905030   3.653723 -13.438349  -2.642289  14.120581 -21.556715 -49.254126  -0.003373 -16.171068  -0.008882   4.015455  -2.235347  -2.067041  -1.445070  -1.973742  -4.933099   5.237790   0.000031  -0.000044  -5.203328  -4.698724   0.615875   0.254431   0.000107  -0.000104   2.447962  -2.810423   4.583557  -0.000044  -0.000000  -0.000000  -3.972861   3.207869   2.874229  -0.146944  -0.000009   0.000158
 -2.368415   0.919089   4.017871   1.539891  -9.481093   0.593722   8.028372   0.469464  -1.050286   6.779471  -1.881044  -0.660565  -1.453465  -3.386391  -1.178577   3.302020  16.010263   1.393955  11.817584  27.075408  50.661900  -0.001571  21.161653   0.006233   5.539653   2.949403   6.199816   3.587838 -13.973996  -2.657143  13.979185 -22.223638 -49.453248  -0.003254 -15.944360  -0.009110   3.911568  -2.230086  -2.370285  -1.491108  -1.985827  -4.962536   5.334163   0.000019  -0.000116  -5.210118  -4.673398   0.580339   0.247701   0.000083  -0.000079   2.475176  -2.835417   4.562833  -0.000035  -0.000000  -0.000000  -3.920033   3.155826   2.868409  -0.175331  -0.000008   0.000163
